<?xml version="1.0" encoding="utf-8"?>
<svg version="1.1" xmlns:xlink="http://www.w3.org/1999/xlink" width="12px" height="12px" viewBox="121 213  12 12" xmlns="http://www.w3.org/2000/svg">
  <path d="M 127 213  C 130.36 213  133 215.64  133 219  C 133 222.36  130.36 225  127 225  C 123.64 225  121 222.36  121 219  C 121 215.64  123.64 213  127 213  Z " fill-rule="nonzero" fill="#ffffff" stroke="none" />
  <path d="M 127 213.5  C 130.08 213.5  132.5 215.92  132.5 219  C 132.5 222.08  130.08 224.5  127 224.5  C 123.92 224.5  121.5 222.08  121.5 219  C 121.5 215.92  123.92 213.5  127 213.5  Z " stroke-width="1" stroke="#797979" fill="none" />
  <path d="M 127 222  C 125.32 222  124 220.68  124 219  C 124 217.32  125.32 216  127 216  C 128.68 216  130 217.32  130 219  C 130 220.68  128.68 222  127 222  " fill-rule="nonzero" fill="#797979" stroke="none" />
</svg>